<svg width="301" height="300" viewBox="0 0 301 300" fill="none" xmlns="http://www.w3.org/2000/svg">
<rect width="300" height="300" fill="#0F172A"/>
<circle cx="140" cy="149" r="101.5" stroke="#86EFAC" stroke-width="47"/>
<rect x="224.157" y="183" width="99.8653" height="54.4617" rx="27.2309" transform="rotate(40.2063 224.157 183)" fill="#86EFAC"/>
<path d="M109.66 198.136C110.871 192.805 113.602 188.801 117.854 186.123C122.24 183.475 127.164 182.771 132.629 184.012C138.093 185.253 142.164 188 144.842 192.252C147.654 196.534 148.454 201.341 147.243 206.671C146.063 211.869 143.265 215.859 138.849 218.64C134.597 221.318 129.739 222.036 124.275 220.795C118.811 219.555 114.673 216.793 111.861 212.511C109.214 208.125 108.48 203.334 109.66 198.136ZM104.455 88.6905C111.578 83.8614 119.725 80.3861 128.895 78.2644C138.097 76.0095 147.229 75.9112 156.291 77.9693C164.954 79.9367 172.187 83.2612 177.991 87.9428C183.795 92.6245 187.846 98.2393 190.142 104.787C192.603 111.232 192.986 118.186 191.291 125.65C190.231 130.314 188.499 134.546 186.095 138.344C183.691 142.143 180.154 145.684 175.484 148.968C170.978 152.149 164.714 155.351 156.695 158.575C155.477 159 154.347 159.654 153.306 160.539C152.294 161.29 151.452 162.22 150.78 163.328C150.271 164.334 149.799 165.488 149.363 166.791L147.737 172.097L123.948 166.695L125.446 155.473C126.105 150.717 127.546 146.84 129.769 143.841C131.992 140.842 135.026 138.589 138.873 137.08C143.506 135.189 147.147 133.353 149.794 131.571C152.441 129.79 154.309 128.042 155.399 126.328C156.653 124.51 157.446 122.868 157.779 121.402C158.233 119.403 158.057 117.401 157.251 115.396C156.609 113.288 155.276 111.444 153.252 109.863C151.362 108.313 148.818 107.174 145.619 106.448C140.954 105.389 136.366 105.538 131.853 106.895C127.371 108.12 122.422 110.78 117.007 114.876L104.455 88.6905Z" fill="#86EFAC"/>
</svg>
