<svg width="286" height="272" viewBox="0 0 286 272" fill="none" xmlns="http://www.w3.org/2000/svg">
<circle cx="125" cy="131" r="101.5" stroke="#86EFAC" stroke-width="47"/>
<rect x="209.157" y="165" width="99.8653" height="54.4617" rx="27.2309" transform="rotate(40.2063 209.157 165)" fill="#86EFAC"/>
<path d="M94.6603 180.136C95.871 174.805 98.6023 170.801 102.854 168.123C107.24 165.475 112.164 164.771 117.629 166.012C123.093 167.253 127.164 170 129.842 174.252C132.654 178.534 133.454 183.341 132.243 188.671C131.063 193.869 128.265 197.859 123.849 200.64C119.597 203.318 114.739 204.036 109.275 202.795C103.811 201.555 99.6729 198.793 96.8615 194.511C94.2136 190.125 93.4799 185.334 94.6603 180.136ZM89.4546 70.6905C96.5776 65.8614 104.725 62.3861 113.896 60.2644C123.097 58.0095 132.229 57.9112 141.291 59.9693C149.954 61.9367 157.187 65.2612 162.991 69.9428C168.795 74.6245 172.846 80.2393 175.142 86.7872C177.603 93.2322 177.986 100.186 176.291 107.65C175.231 112.314 173.5 116.546 171.095 120.344C168.691 124.143 165.154 127.684 160.484 130.968C155.978 134.149 149.714 137.351 141.695 140.575C140.477 141 139.347 141.654 138.306 142.539C137.294 143.29 136.452 144.22 135.78 145.328C135.271 146.334 134.799 147.488 134.363 148.791L132.738 154.097L108.948 148.695L110.446 137.473C111.105 132.717 112.546 128.84 114.769 125.841C116.992 122.842 120.026 120.589 123.873 119.08C128.506 117.189 132.147 115.353 134.794 113.571C137.441 111.79 139.309 110.042 140.399 108.328C141.653 106.51 142.446 104.868 142.779 103.402C143.233 101.403 143.057 99.4013 142.251 97.3963C141.609 95.2884 140.276 93.444 138.252 91.8633C136.362 90.3128 133.818 89.1744 130.619 88.448C125.955 87.3886 121.366 87.5378 116.853 88.8954C112.371 90.1198 107.422 92.7799 102.007 96.8757L89.4546 70.6905Z" fill="#86EFAC"/>
</svg>
